<svg xmlns="http://www.w3.org/2000/svg" version="1.1" xmlns:xlink="http://www.w3.org/1999/xlink" xmlns:svgjs="http://svgjs.dev/svgjs" width="1000" height="1000" viewBox="0 0 1000 1000"><rect width="1000" height="1000" fill="#ffffff"></rect><g transform="matrix(0.7,0,0,0.7,149.57575757575756,326.48422699718515)"><svg viewBox="0 0 396 197" data-background-color="#ffffff" preserveAspectRatio="xMidYMid meet" height="497" width="1000" xmlns="http://www.w3.org/2000/svg" xmlns:xlink="http://www.w3.org/1999/xlink"><defs></defs><g id="tight-bounds" transform="matrix(1,0,0,1,0.2400000000000091,-0.24588244654043478)"><svg viewBox="0 0 395.52 197.49176551191982" height="197.49176551191982" width="395.52"><g><svg viewBox="0 0 395.52 197.49176551191982" height="197.49176551191982" width="395.52"><g transform="matrix(1,0,0,1,0,119.7051930372571)"><svg viewBox="0 0 395.52 77.7865724746627" height="77.7865724746627" width="395.52"><g><svg viewBox="0 0 395.52 77.7865724746627" height="77.7865724746627" width="395.52"><g><svg viewBox="0 0 395.52 51.69585166333394" height="51.69585166333394" width="395.52"><g transform="matrix(1,0,0,1,0,0)"><svg width="395.52" viewBox="2.5 -34.75 275.0400085449219 35.95000076293945" height="51.69585166333394" data-palette-color="#5e1914"><path d="M15.4 0.3Q14.75 0.15 12.65 0.15L12.65 0.15 10.5 0.15Q9.45 0.15 7.35 0.05L7.35 0.05 6.05 0 4.15-0.2 3.95-0.2Q3.6-0.2 3.5-0.55L3.5-0.55 3.5-0.9Q3.55-0.95 3.55-1.15L3.55-1.15Q3.55-1.4 4.3-3.25L4.3-3.25 5.95-6.3Q6.65-7.6 7.4-8.65L7.4-8.65Q7.5-8.85 7.73-9.3 7.95-9.75 8.4-10.5L8.4-10.5 9.15-12 9.9-13.55 10.65-15.1Q11.7-17.2 11.9-17.65L11.9-17.65 11.4-18.45Q11.15-18.9 10.88-19.38 10.6-19.85 10.4-20.2L10.4-20.2Q10.4-20.2 9.9-20.95L9.9-20.95Q9.75-21.2 9.43-21.7 9.1-22.2 8.9-22.65L8.9-22.65Q8.5-23.2 7.55-24.75L7.55-24.75 6.8-26Q6.4-26.6 6.25-26.9L6.25-26.9Q6.15-27.1 5.2-28.5L5.2-28.5 4.75-29.25Q4.1-30.15 3.4-31.3L3.4-31.3Q2.5-32.85 2.5-33.75L2.5-33.75Q2.85-33.75 3.15-33.9L3.15-33.9 3.65-33.9Q3.75-33.95 3.8-33.95 3.85-33.95 3.9-33.95L3.9-33.95 4.45-33.95Q4.9-33.9 5.95-33.9L5.95-33.9Q6.55-33.9 8.35-33.8L8.35-33.8Q9.65-33.7 10.4-33.7L10.4-33.7 14.9-33.5 16.4-33.4 17.05-33.4Q17.25-33.4 17.7-32.9L17.7-32.9Q18.5-31.8 19.8-29.7L19.8-29.7Q20.45-28.65 21.75-26.4L21.75-26.4Q21.9-26.05 22.03-25.88 22.15-25.7 22.15-25.65L22.15-25.65Q22.15-25.25 22.4-25L22.4-25 22.55-24.75 22.65-24.65Q22.75-24.7 23.25-25.2L23.25-25.2Q23.35-25.25 23.55-25.65L23.55-25.65 23.95-26.4 25.9-29.7Q27.25-31.9 28.05-32.9L28.05-32.9Q28.4-33.4 28.65-33.4L28.65-33.4 29.7-33.45Q30.2-33.45 32.2-33.55L32.2-33.55Q33.5-33.65 34.25-33.65L34.25-33.65 35.3-33.7Q36.5-33.7 38.4-33.8L38.4-33.8Q39.25-33.9 39.83-33.9 40.4-33.9 40.8-33.95L40.8-33.95 41.9-33.95 42.05-33.9 42.5-33.9 43.2-33.75Q43.2-33.05 42.3-31.55L42.3-31.55Q41.95-31 41.53-30.48 41.1-29.95 40.95-29.75L40.95-29.75Q40.75-29.55 40.45-29L40.45-29Q38.85-26.05 38.15-25L38.15-25Q36.7-22.45 35.8-21L35.8-21Q35.45-20.4 35.2-20.03 34.95-19.65 34.65-19.3L34.65-19.3Q33.75-18.1 33.3-17.65L33.3-17.65 34.9-14.7Q35.05-14.5 35.23-14.13 35.4-13.75 35.5-13.55L35.5-13.55Q36-12.7 36.15-12.5L36.15-12.5Q36.2-12.3 36.35-12.05 36.5-11.8 36.55-11.65L36.55-11.65 36.9-11.05 38.75-7.9Q40.35-4.95 41.05-3.55L41.05-3.55Q42.15-1.25 42.15-0.65L42.15-0.65 42.15-0.4 42.15-0.2Q42.15 0 42.05 0.2L42.05 0.2Q41.95 0.3 41.75 0.3L41.75 0.3 41.55 0.3Q40.45 0.3 39.75 0.25L39.75 0.25Q38.4 0.25 37.65 0.2L37.65 0.2Q36.2 0.2 35.5 0.15L35.5 0.15 33.45 0.15Q31.4 0.15 30.8 0.3L30.8 0.3 30.7 0.35Q30.55 0.35 30.28 0.23 30 0.1 29.9 0.05L29.9 0.05Q29.5-0.05 29.4-0.15L29.4-0.15Q29.3-0.15 29.23-0.18 29.15-0.2 29.15-0.2L29.15-0.2Q29.05-0.2 28.85-0.15 28.65-0.1 28.65-0.05L28.65-0.05 27.45-1.15 27.45-1.55Q27.45-1.65 27.4-1.65L27.4-1.65 27.3-1.65Q27.25-1.65 27.18-1.63 27.1-1.6 26.9-1.75L26.9-1.75 24.4-6.25Q23.75-7.6 23.55-7.9L23.55-7.9Q23.4-8.2 23-8.7L23-8.7Q22.85-9 22.65-9L22.65-9 21.3-6.25 19.75-2.8 18.75-1.15 17.55-0.05 17.5-0.15 17.3-0.15 17.05-0.2Q17-0.2 16.95-0.18 16.9-0.15 16.8-0.15L16.8-0.15Q16.35 0.1 15.8 0.25L15.8 0.25Q15.65 0.3 15.4 0.3L15.4 0.3ZM50.2-0.05Q49.35-0.05 49.1-1.15L49.1-1.15Q48.85-1.7 48.85-3.15L48.85-3.15Q48.85-7.5 48.75-10.9L48.75-10.9Q48.6-15.8 48.6-21.25L48.6-21.25 48.6-32.25Q48.6-32.7 49.02-33.13 49.45-33.55 49.9-33.55L49.9-33.55 55.65-33.5Q57.25-33.45 59.85-33.45L59.85-33.45Q63.6-33.45 65.65-33.5L65.65-33.5 67.5-33.55Q70.5-33.65 72.45-33.65L72.45-33.65Q75.6-33.65 78.45-32.75L78.45-32.75Q81.8-31.75 83.9-29.3L83.9-29.3Q86.25-26.65 86.25-22.15L86.25-22.15Q86.25-14.55 82.4-11.15L82.4-11.15Q79-7.95 72.25-7.95L72.25-7.95 65.4-7.95Q65.45-6.8 65.45-5.5L65.45-5.5Q65.45-5.05 65.42-4.42 65.4-3.8 65.4-2.75L65.4-2.75Q65.4-1.1 64.7-0.65L64.7-0.65Q64.15-0.2 62.65-0.2L62.65-0.2Q60.45-0.2 59.6-0.15L59.6-0.15Q56.15-0.15 54.1-0.05L54.1-0.05 50.2-0.05ZM66.7-13.95L68.1-13.95Q69.15-13.95 69.65-15.95L69.65-15.95Q70.05-17.3 70.25-19.95L70.25-19.95Q70.35-21.4 70.35-23.2L70.35-23.2 70.35-23.75Q70.35-24.55 70.1-26.15L70.1-26.15Q69.9-27.05 69.65-27.58 69.4-28.1 69-28.45L69-28.45Q68.6-28.9 68.1-28.9L68.1-28.9Q67.85-28.9 67.67-28.7 67.5-28.5 67.35-28.2L67.35-28.2Q66.8-27.3 66.35-24.2L66.35-24.2Q66.2-23.3 66.1-21.5L66.1-21.5Q65.85-18.75 65.85-14.15L65.85-14.15Q65.85-14.15 65.9-14.1 65.95-14.05 66.1-14L66.1-14 66.7-13.95ZM104.45 1.2Q100.9 1.2 97.3 0.4L97.3 0.4Q93.75-0.45 91.45-1.9L91.45-1.9Q90.85-3.7 90.55-5.5 90.25-7.3 89.8-10.65L89.8-10.65 89.8-10.8Q89.9-11.4 90.45-11.7L90.45-11.7Q92.35-10.55 94.1-9.98 95.85-9.4 97.95-9.4L97.95-9.4 99.15-9.4 99.95-9.35Q101.1-9.35 102.3-9.7L102.3-9.7Q102.95-9.95 103.2-10.65L103.2-10.65 100.55-11.95Q97.5-13.4 95.05-15.05L95.05-15.05Q92.5-16.9 91.4-19.75L91.4-19.75Q90.85-21.3 90.85-23.15L90.85-23.15Q90.85-27.65 93.6-30.4L93.6-30.4Q96-32.85 100.1-33.9L100.1-33.9Q103.65-34.75 107.9-34.75L107.9-34.75Q110.4-34.75 114.8-34.2L114.8-34.2Q115.25-34.1 116.05-34L116.05-34 117.55-33.7Q119.25-33.4 120.05-33.4L120.05-33.4Q120.1-33.4 120.22-33.25 120.35-33.1 120.45-33L120.45-33Q120.65-32.65 120.85-32.65L120.85-32.65 120.9-32.65 120.95-32.65 121.05-31.6Q121.05-30.85 121.2-30L121.2-30Q121.35-28.75 121.35-27.3L121.35-27.3Q121.35-26.05 121.2-25.5L121.2-25.5Q120.95-24.5 120.3-24.05L120.3-24.05 115.65-24.65 115.15-24.65 114.45-24.65Q112.75-24.65 110.55-24.3L110.55-24.3 108.9-23.95Q108.3-23.85 108.3-23.75L108.3-23.75Q108.3-22.55 109.85-21.5L109.85-21.5Q110.6-21.1 111.35-20.83 112.1-20.55 112.3-20.45L112.3-20.45Q116-19.4 118.7-16.8L118.7-16.8Q119.95-15.6 120.65-14.25 121.35-12.9 121.35-11.65L121.35-11.65Q121.35-10.9 121.15-10.05L121.15-10.05Q120.8-6.3 118.3-3.55L118.3-3.55Q115.85-1.1 112.15 0.05L112.15 0.05Q108.95 1.2 104.45 1.2L104.45 1.2ZM134.74 0.05Q134.04 0.05 133.69-0.9L133.69-0.9Q132.94-2.55 132.94-6.9L132.94-6.9Q132.94-11.1 133.09-16.55L133.09-16.55Q133.14-18.3 133.14-21.95L133.14-21.95 132.99-22.15 127.44-22.15Q126.79-22.15 126.42-22.88 126.04-23.6 125.84-24.9L125.84-24.9Q125.59-26.4 125.59-29.2L125.59-29.2 125.59-29.9Q125.59-30.4 125.64-30.7L125.64-30.7 125.64-31.45 125.64-31.9Q125.64-32.2 125.94-32.43 126.24-32.65 126.64-32.75L126.64-32.75Q127.14-32.9 128.14-32.9L128.14-32.9 131.94-32.9Q133.19-32.9 133.84-32.85L133.84-32.85 135.69-32.8 153.69-32.8Q155.64-32.8 156.24-32.75L156.24-32.75Q156.49-32.7 156.94-32.65 157.39-32.6 157.59-32.45L157.59-32.45Q157.94-32.3 158.02-32.08 158.09-31.85 158.09-31.4L158.09-31.4 158.09-23.15Q158.09-22.6 157.64-22.4L157.64-22.4Q157.34-22.3 156.84-22.3L156.84-22.3 155.24-22.3 153.59-22.3Q152.44-22.3 151.84-22.4L151.84-22.4 150.34-22.4Q149.89-22.4 149.84-22.2L149.84-22.2Q149.84-22.15 149.79-22.08 149.74-22 149.74-21.9L149.74-21.9 149.74-21.15 149.74-19.45Q149.74-18.7 149.69-18.3L149.69-18.3Q149.69-16.85 149.49-11.95L149.49-11.95 149.39-10.45Q149.29-8.35 149.19-7.4L149.19-7.4 149.19-2.65Q149.19-0.95 148.49-0.5L148.49-0.5Q147.84-0.25 147.59-0.2L147.59-0.2 146.34-0.15Q144.39-0.15 143.59-0.05L143.59-0.05 138.34 0Q137.34 0.05 134.74 0.05L134.74 0.05ZM181.74 1.2Q175.79 1.2 172.34 0.25L172.34 0.25Q167.54-1 165.04-4.4L165.04-4.4Q162.14-8.45 162.14-15.65L162.14-15.65Q162.14-20.8 163.29-24.4 164.44-28 166.84-30.3L166.84-30.3Q169.24-32.6 173.02-33.68 176.79-34.75 182.24-34.75L182.24-34.75Q186.49-34.75 190.24-33.45L190.24-33.45Q194.84-31.8 197.39-28.4L197.39-28.4Q200.54-24.35 200.54-17.75L200.54-17.75Q200.54-10.05 198.24-5.75L198.24-5.75Q195.94-1.8 191.59-0.15L191.59-0.15Q188.04 1.2 181.74 1.2L181.74 1.2ZM181.34-3.65Q181.94-3.65 182.29-4.4L182.29-4.4Q183.04-6 183.34-9.45L183.34-9.45Q183.64-12.6 183.64-15.4L183.64-15.4 183.64-17.4 183.64-18.65Q183.64-20.85 183.34-24L183.34-24Q183.04-27.4 182.29-29.15L182.29-29.15Q181.89-30 181.34-30L181.34-30Q180.24-30 179.74-27.9L179.74-27.9Q179.24-25 179.24-22.65L179.24-22.65Q179.09-20.65 179.09-16.4L179.09-16.4Q179.09-13.55 179.24-11.7L179.24-11.7Q179.24-9.35 179.74-6.25L179.74-6.25Q180.24-3.65 181.34-3.65L181.34-3.65ZM222.94 1.2Q219.64 1.2 217.44 0.9L217.44 0.9Q214.59 0.5 212.29-0.55L212.29-0.55Q211.99-0.7 211.41-1.03 210.84-1.35 210.44-1.65L210.44-1.65Q208.79-3.05 207.74-4.8L207.74-4.8Q206.89-5.7 206.19-7.3L206.19-7.3Q204.84-10.8 204.84-15.65L204.84-15.65Q204.84-21.35 207.19-25.65L207.19-25.65Q209.24-29.75 212.66-32.08 216.09-34.4 220.44-34.7L220.44-34.7 221.04-34.75 221.69-34.75Q225.59-34.75 230.09-33.15L230.09-33.15Q230.49-32.95 231.84-32.35 233.19-31.75 234.34-31L234.34-31 233.44-24.5 230.49-25.25Q228.89-25.65 227.49-25.65L227.49-25.65Q224.69-25.65 223.29-23.55L223.29-23.55Q221.79-21.35 221.79-16.4L221.79-16.4Q221.79-14.8 221.94-14.15L221.94-14.15Q222.14-11 223.34-9.5L223.34-9.5Q224.49-8.2 226.09-8.2L226.09-8.2Q227.59-8.2 229.44-9.15L229.44-9.15Q231.04-9.9 232.94-11.2L232.94-11.2 233.44-3Q231.49-1.2 228.44 0.05L228.44 0.05Q225.54 1.2 222.94 1.2L222.94 1.2ZM265.99 0.9L265.29 0.4Q264.99 0.05 264.99 0L264.99 0 259.74-6.05Q259.59-6.2 259.24-6.65 258.89-7.1 258.59-7.4L258.59-7.4 257.84-8.15Q257.49-8.4 257.39-8.4L257.39-8.4Q257.19-8.4 257.09-8.28 256.99-8.15 256.99-8L256.99-8 256.99-7.3 256.99-6.2Q256.99-5.4 256.89-4.95L256.89-4.95 256.89-3.65Q256.84-3.2 256.84-2.55L256.84-2.55 256.84-1.9 256.84-1.15 256.84-0.95Q256.84-0.45 256.49-0.4L256.49-0.4Q256.24-0.2 255.74-0.3L255.74-0.3Q253.14-0.2 251.99-0.2L251.99-0.2 245.59-0.25 244.74-0.25 243.74-0.25Q243.09-0.25 242.84-0.3L242.84-0.3 242.49-0.3 240.24-0.5 240.09-0.9Q240.04-0.9 240.04-1.45L240.04-1.45Q240.04-2.3 239.99-2.9L239.99-2.9 239.99-4.9Q239.89-5.65 239.89-7.15L239.89-7.15 239.79-11Q239.74-12.25 239.54-14.75L239.54-14.75 239.49-16Q239.39-17.7 239.39-18.5L239.39-18.5 239.39-19Q239.49-19.3 239.49-19.9L239.49-19.9Q239.54-20.55 239.54-21.4L239.54-21.4 239.49-22.4Q239.49-22.75 239.44-22.98 239.39-23.2 239.39-23.3L239.39-23.3Q239.39-23.4 239.44-23.9 239.49-24.4 239.49-24.9L239.49-24.9Q239.54-25.5 239.54-26.4L239.54-26.4 239.54-27.15 239.54-28.15Q239.49-29 239.49-30.65L239.49-30.65Q239.39-31 239.39-31.65L239.39-31.65 239.39-32.15Q239.24-33.3 240.59-33.5L240.59-33.5Q240.99-33.65 241.74-33.65L241.74-33.65 242.84-33.65 248.39-33.65 252.49-33.65 255.14-33.65 256.74-33.65Q257.44-33.65 257.59-32.8L257.59-32.8Q257.64-32.65 257.64-32.15L257.64-32.15 257.64-31.4Q257.64-30.15 257.54-27.65L257.54-27.65 257.49-26.3Q257.39-25 257.39-24.5L257.39-24.5Q257.99-24.5 258.49-24.8L258.49-24.8Q258.84-25.15 258.84-25.15L258.84-25.15Q258.94-25.2 259.06-25.33 259.19-25.45 259.29-25.55L259.29-25.55Q259.49-25.65 260.24-26.4L260.24-26.4Q261.49-27.65 264.34-30.25L264.34-30.25Q267.09-32.85 268.64-34.05L268.64-34.05Q269.59-34.7 269.84-34.75L269.84-34.75Q269.94-34.75 270.19-34.5 270.44-34.25 270.54-34.15L270.54-34.15Q270.54-34.15 270.99-33.7L270.99-33.7Q271.09-33.45 271.24-33.4L271.24-33.4 271.54-33.05Q271.99-32.7 272.14-32.45L272.14-32.45 272.74-31.9Q272.89-31.75 272.99-31.63 273.09-31.5 273.14-31.45L273.14-31.45Q273.44-30.95 274.74-29.3L274.74-29.3Q275.74-28.15 276.24-27.05L276.24-27.05 276.24-26.95Q276.24-26.25 274.84-24.75L274.84-24.75 273.74-23.65Q273.14-23.1 272.89-22.8L272.89-22.8Q272.84-22.8 272.74-22.7 272.64-22.6 272.49-22.45L272.49-22.45 270.49-20.9Q270.49-20.9 269.49-19.9L269.49-19.9 268.59-19.2Q268.49-19.15 268.21-18.93 267.94-18.7 267.74-18.65L267.74-18.65Q267.59-18.55 267.39-18.43 267.19-18.3 267.14-18.2L267.14-18.2Q267.04-18.15 267.04-17.75L267.04-17.75Q267.04-16.95 267.84-16.25L267.84-16.25Q268.19-15.85 268.54-15.65L268.54-15.65 269.24-15.05Q270.29-14 270.29-14L270.29-14Q271.29-13.15 273.89-10.75L273.89-10.75Q275.89-8.95 277.04-7.5L277.04-7.5Q277.54-6.75 277.54-6.4L277.54-6.4Q277.54-6.1 277.46-5.9 277.39-5.7 277.14-5.45L277.14-5.45Q276.14-4.6 275.29-4.2L275.29-4.2Q274.44-3.75 273.64-3.08 272.84-2.4 272.09-1.75L272.09-1.75Q271.44-1.15 270.59-0.65L270.59-0.65 269.59-0.15Q269.59-0.15 269.14 0.15L269.14 0.15Q268.69 0.45 268.49 0.65L268.49 0.65Q267.74 1.1 266.94 1.1L266.94 1.1Q266.49 1.1 265.99 0.9L265.99 0.9Z" opacity="1" transform="matrix(1,0,0,1,0,0)" fill="#000000" class="undefined-text-0" data-fill-palette-color="primary" id="text-0"></path></svg></g></svg></g><g transform="matrix(1,0,0,1,75.54431999999998,63.900001540607164)"><svg viewBox="0 0 244.43136 13.88657093405555" height="13.88657093405555" width="244.43136"><g transform="matrix(1,0,0,1,0,0)"><svg width="244.43136" viewBox="2.1500000953674316 -34.599998474121094 793.7699584960938 45.099998474121094" height="13.88657093405555" data-palette-color="#8d021f"><path d="M17.1-34.6L17.1-34.6Q23.05-34.6 27.25-32.15 31.45-29.7 31.45-26.95L31.45-26.95Q31.45-26.2 31.13-25.68 30.8-25.15 30.33-24.93 29.85-24.7 29.3-24.7L29.3-24.7Q28.4-24.7 26.6-25.63 24.8-26.55 22.6-27.48 20.4-28.4 18.55-28.4L18.55-28.4Q15.6-28.4 15.6-26L15.6-26Q15.6-25.25 16.07-24.58 16.55-23.9 17.6-23.18 18.65-22.45 19.65-21.9 20.65-21.35 22.4-20.43 24.15-19.5 25.35-18.8L25.35-18.8Q29.2-16.6 30.75-14.6 32.3-12.6 32.3-10L32.3-10Q32.3 0.35 18.35 0.35L18.35 0.35Q15.6 0.35 13.03-0.2 10.45-0.75 8.53-1.65 6.6-2.55 5.13-3.65 3.65-4.75 2.9-5.9 2.15-7.05 2.15-8.05L2.15-8.05Q2.15-9.15 2.88-9.93 3.6-10.7 5-10.7L5-10.7Q6.05-10.7 10.05-9.38 14.05-8.05 16.5-8.05L16.5-8.05Q18.75-8.05 18.75-9.6L18.75-9.6Q18.75-10.05 18.57-10.43 18.4-10.8 17.98-11.18 17.55-11.55 17.03-11.88 16.5-12.2 15.58-12.7 14.65-13.2 13.73-13.7 12.8-14.2 11.3-15 9.8-15.8 8.4-16.6L8.4-16.6Q6.55-17.65 5.23-19.2 3.9-20.75 3.3-22.28 2.7-23.8 2.7-25.1L2.7-25.1Q2.7-29.3 6.45-31.95 10.2-34.6 17.1-34.6ZM38.5-10.7L38.5-10.7 38.5-16.6Q37.25-16.65 36.5-17.03 35.75-17.4 35.42-18 35.1-18.6 35.1-19.5L35.1-19.5Q35.1-22.35 38.55-22.6L38.55-22.6 38.55-27.25Q38.55-29.15 41.3-30.68 44.05-32.2 46.75-32.2L46.75-32.2Q48.4-32.2 48.9-31.25 49.4-30.3 49.4-28.4L49.4-28.4 49.45-22.65 50.8-22.65Q53.55-22.65 54.57-21.93 55.6-21.2 55.6-19.3L55.6-19.3Q55.6-18.5 55.3-17.95 55-17.4 54.32-17.1 53.65-16.8 52.7-16.68 51.75-16.55 50.35-16.55L50.35-16.55 49.45-16.55 49.45-11.05Q49.45-10.25 49.52-9.73 49.6-9.2 49.75-8.9 49.9-8.6 50.17-8.5 50.45-8.4 50.85-8.4L50.85-8.4Q51.45-8.4 51.85-8.83 52.25-9.25 52.47-9.78 52.7-10.3 53.07-10.73 53.45-11.15 53.95-11.15L53.95-11.15Q55.1-11.15 55.72-10.6 56.35-10.05 56.35-9.25L56.35-9.25Q56.35-7.9 55.82-6.35 55.3-4.8 54.3-3.35 53.3-1.9 51.52-0.95 49.75 0 47.55 0L47.55 0Q42.6 0 40.55-2.5 38.5-5 38.5-10.7ZM76.2-11.85L76.2-11.85Q76.2-14.45 75.55-16.43 74.9-18.4 73.65-18.4L73.65-18.4Q72.8-18.4 72.15-17.4 71.5-16.4 71.2-14.95 70.9-13.5 70.9-11.85L70.9-11.85Q70.9-9.3 71.59-7.38 72.3-5.45 73.59-5.45 74.9-5.45 75.55-7.35 76.2-9.25 76.2-11.85ZM73.59 0.35L73.59 0.35Q69.7 0.35 66.57-1.05 63.45-2.45 61.57-5.25 59.7-8.05 59.7-11.8L59.7-11.8Q59.7-17.5 63.6-20.85 67.5-24.2 73.59-24.2 79.7-24.2 83.55-20.85 87.4-17.5 87.4-11.8L87.4-11.8Q87.4-6.15 83.47-2.9 79.55 0.35 73.59 0.35ZM106.39-18.7L106.39-18.7Q106.39-19.85 105.09-19.85L105.09-19.85Q104.14-19.85 103.39-18.8 102.64-17.75 102.24-16.18 101.84-14.6 101.84-12.9L101.84-12.9Q101.84-10.4 103.37-8.85 104.89-7.3 107.49-7.3L107.49-7.3Q110.04-7.3 111.89-7.9L111.89-7.9Q112.64-8.1 113.72-8.65 114.79-9.2 115.24-9.2L115.24-9.2Q115.94-9.2 116.39-8.95 116.84-8.7 117.02-8.35 117.19-8 117.19-7.6L117.19-7.6Q117.19-6.9 116.72-5.9 116.24-4.9 115.24-3.8 114.24-2.7 112.92-1.78 111.59-0.85 109.64-0.25 107.69 0.35 105.54 0.35L105.54 0.35Q99.34 0.35 95.34-2.98 91.34-6.3 91.34-12.1L91.34-12.1Q91.34-15.8 93.17-18.57 94.99-21.35 98.19-22.78 101.39-24.2 105.54-24.2L105.54-24.2Q109.49-24.2 112.07-23.28 114.64-22.35 115.74-20.8 116.84-19.25 116.84-17.1L116.84-17.1Q116.84-16.15 116.47-15.15 116.09-14.15 115.32-13.15 114.54-12.15 113.04-11.53 111.54-10.9 109.54-10.9L109.54-10.9Q108.64-10.9 108.07-11 107.49-11.1 106.87-11.43 106.24-11.75 105.94-12.5 105.64-13.25 105.64-14.4L105.64-14.4Q105.64-15.4 106.02-16.82 106.39-18.25 106.39-18.7ZM134.34-7.1L134.34-7.1 132.54-7.1Q132.54-4.5 131.04-2.25 129.54 0 127.04 0L127.04 0Q124.24 0 122.92-1.58 121.59-3.15 121.59-7.15L121.59-7.15 121.59-27.7Q121.59-29.85 122.29-31.18 122.99-32.5 124.12-33.05 125.24-33.6 127.04-33.7L127.04-33.7Q130.14-33.7 131.19-31.63 132.24-29.55 132.24-24.45L132.24-24.45Q132.24-20.5 131.79-17.5L131.79-17.5Q132.14-16.4 134.04-16.4L134.04-16.4Q135.24-16.4 135.67-16.93 136.09-17.45 136.09-19.05L136.09-19.05Q136.09-21.4 137.31-22.45 138.54-23.5 141.49-23.5L141.49-23.5Q144.59-23.5 145.67-22.38 146.74-21.25 146.74-18.3L146.74-18.3Q146.74-15.2 144.89-13.5 143.04-11.8 140.74-11.8L140.74-11.8Q143.09-11.8 144.92-10.38 146.74-8.95 146.74-6.1L146.74-6.1Q146.74-2.3 145.72-1.15 144.69 0 141.49 0L141.49 0Q138.54 0 137.31-1.07 136.09-2.15 136.09-4.45L136.09-4.45Q136.09-5.6 135.89-6.18 135.69-6.75 135.37-6.93 135.04-7.1 134.34-7.1ZM154.54-17.3L161.49-17.3Q163.29-17.3 164.34-16.93 165.39-16.55 165.84-15.7 166.29-14.85 166.29-13.4L166.29-13.4Q166.29-11.55 165.04-10.83 163.79-10.1 161.04-10.1L161.04-10.1 154.19-10.1Q150.14-10.1 150.14-13.6L150.14-13.6Q150.14-17.3 154.54-17.3L154.54-17.3ZM172.84-10.7L172.84-10.7 172.84-16.6Q171.59-16.65 170.84-17.03 170.09-17.4 169.76-18 169.44-18.6 169.44-19.5L169.44-19.5Q169.44-22.35 172.89-22.6L172.89-22.6 172.89-27.25Q172.89-29.15 175.64-30.68 178.39-32.2 181.09-32.2L181.09-32.2Q182.74-32.2 183.24-31.25 183.74-30.3 183.74-28.4L183.74-28.4 183.79-22.65 185.14-22.65Q187.89-22.65 188.91-21.93 189.94-21.2 189.94-19.3L189.94-19.3Q189.94-18.5 189.64-17.95 189.34-17.4 188.66-17.1 187.99-16.8 187.04-16.68 186.09-16.55 184.69-16.55L184.69-16.55 183.79-16.55 183.79-11.05Q183.79-10.25 183.86-9.73 183.94-9.2 184.09-8.9 184.24-8.6 184.51-8.5 184.79-8.4 185.19-8.4L185.19-8.4Q185.79-8.4 186.19-8.83 186.59-9.25 186.81-9.78 187.04-10.3 187.41-10.73 187.79-11.15 188.29-11.15L188.29-11.15Q189.44-11.15 190.06-10.6 190.69-10.05 190.69-9.25L190.69-9.25Q190.69-7.9 190.16-6.35 189.64-4.8 188.64-3.35 187.64-1.9 185.86-0.95 184.09 0 181.89 0L181.89 0Q176.94 0 174.89-2.5 172.84-5 172.84-10.7ZM206.13-15.4L206.13-5.35Q206.13-2.35 204.88-1.18 203.63 0 200.43 0L200.43 0Q197.48 0 196.43-1.38 195.38-2.75 195.38-5.9L195.38-5.9 195.38-18.2Q195.38-19.9 195.98-21.18 196.58-22.45 197.73-23.15 198.88-23.85 200.43-23.85L200.43-23.85Q204.23-23.85 205.43-21.65L205.43-21.65Q208.33-23.85 211.03-23.85L211.03-23.85Q216.28-23.85 216.28-18.85L216.28-18.85Q216.28-16.85 215.13-15.6 213.98-14.35 212.13-14.35L212.13-14.35Q211.03-14.35 210.36-14.8 209.68-15.25 209.11-15.7 208.53-16.15 207.78-16.15L207.78-16.15Q206.68-16.15 206.13-15.4L206.13-15.4ZM227.43 0.3L227.43 0.3Q223.48 0.3 220.88-2.93 218.28-6.15 218.28-11.75L218.28-11.75Q218.28-17.45 220.86-20.83 223.43-24.2 227.43-24.2L227.43-24.2Q231.48-24.2 234.93-21.35L234.93-21.35Q236.28-23.85 239.28-23.85L239.28-23.85Q241.98-23.85 243.48-22.68 244.98-21.5 244.98-18.35L244.98-18.35 244.98-5.35Q244.98-2.35 243.73-1.18 242.48 0 239.33 0L239.33 0Q236.03 0 234.98-1.85L234.98-1.85Q231.78 0.3 227.43 0.3ZM234.23-7.2L234.23-16.55Q233.38-18 232.03-18L232.03-18Q230.73-18 229.93-16.1 229.13-14.2 229.13-11.75L229.13-11.75Q229.13-9.45 229.88-7.65 230.63-5.85 231.98-5.85L231.98-5.85Q233.38-5.85 234.23-7.2L234.23-7.2ZM276.33-28.7L276.33-7.5Q276.33-3.45 274.98-1.73 273.63 0 270.83 0L270.83 0Q267.63 0 266.43-2L266.43-2Q263.18 0.35 258.58 0.35L258.58 0.35Q254.68 0.35 252.08-2.88 249.48-6.1 249.48-11.7L249.48-11.7Q249.48-17.4 252.03-20.78 254.58-24.15 258.58-24.15L258.58-24.15Q262.18-24.15 265.33-21.85L265.33-21.85 265.33-28.25Q265.33-31.3 266.83-32.77 268.33-34.25 270.83-34.25L270.83-34.25Q273.58-34.25 274.95-33.15 276.33-32.05 276.33-28.7L276.33-28.7ZM265.43-7.2L265.43-7.2 265.38-16.55Q264.53-17.95 263.18-17.95L263.18-17.95Q262.33-17.95 261.65-17 260.98-16.05 260.63-14.65 260.28-13.25 260.28-11.7L260.28-11.7Q260.28-9.4 261.03-7.6 261.78-5.8 263.13-5.8L263.13-5.8Q263.38-5.8 263.63-5.85 263.88-5.9 264.08-5.98 264.28-6.05 264.48-6.18 264.68-6.3 264.83-6.45 264.98-6.6 265.13-6.8 265.28-7 265.43-7.2ZM280.78-30.8L280.78-30.8Q280.78-32.45 282.2-33.52 283.63-34.6 286.23-34.6L286.23-34.6Q291.68-34.6 291.68-30.8L291.68-30.8Q291.68-28.7 290.3-27.85 288.93-27 286.23-27L286.23-27Q283.88-27 282.33-27.9 280.78-28.8 280.78-30.8ZM291.63-18.35L291.63-5.35Q291.63-2.35 290.38-1.18 289.13 0 285.98 0L285.98 0Q283.03 0 281.95-1.38 280.88-2.75 280.88-5.9L280.88-5.9 280.88-18.2Q280.88-20.75 282.25-22.3 283.63-23.85 285.93-23.85L285.93-23.85Q288.63-23.85 290.13-22.68 291.63-21.5 291.63-18.35L291.63-18.35ZM311.57-4.15L311.52-13.45Q311.52-16.25 309.32-16.25L309.32-16.25Q308.27-16.25 307.6-15.38 306.92-14.5 306.82-13.05L306.82-13.05 306.82-5.35Q306.82-2.3 305.57-1.15 304.32 0 301.17 0L301.17 0Q298.22 0 297.15-1.38 296.07-2.75 296.07-5.9L296.07-5.9 296.07-18.2Q296.07-20.75 297.45-22.3 298.82-23.85 301.12-23.85L301.12-23.85Q303.02-23.85 304.32-23.3 305.62-22.75 306.27-21.4L306.27-21.4Q310.17-23.95 315.77-23.95L315.77-23.95Q319.32-23.95 320.9-21.15 322.47-18.35 322.47-11.95L322.47-11.95Q322.47-8.8 322.32-6.83 322.17-4.85 321.85-3.43 321.52-2 320.82-1.3 320.12-0.6 319.2-0.3 318.27 0 316.82 0L316.82 0Q314.02 0 312.8-1.05 311.57-2.1 311.57-4.15L311.57-4.15ZM335.57 0.3L335.57 0.3Q331.62 0.3 329.02-2.93 326.42-6.15 326.42-11.8L326.42-11.8Q326.42-17.5 328.97-20.85 331.52-24.2 335.52-24.2L335.52-24.2Q339.57-24.2 343.02-21.4L343.02-21.4Q344.32-23.85 347.32-23.85L347.32-23.85Q350.02-23.85 351.55-22.65 353.07-21.45 353.07-18.35L353.07-18.35 353.07-9.2Q353.07-4.35 352.45-0.88 351.82 2.6 350.3 5.25 348.77 7.9 346.1 9.2 343.42 10.5 339.52 10.5L339.52 10.5Q336.82 10.5 334.52 9.75 332.22 9 330.87 7.9 329.52 6.8 328.77 5.7 328.02 4.6 328.02 3.8L328.02 3.8Q328.02 2.85 328.57 2.2 329.12 1.55 330.12 1.55L330.12 1.55Q330.72 1.55 333.15 2.85 335.57 4.15 337.07 4.15L337.07 4.15Q342.17 4.15 342.17-1.1L342.17-1.1Q339.27 0.3 335.57 0.3ZM342.37-7.2L342.37-7.2 342.32-16.65Q341.47-18.05 340.17-18.05L340.17-18.05Q339.27-18.05 338.6-17.1 337.92-16.15 337.6-14.75 337.27-13.35 337.27-11.8L337.27-11.8Q337.27-9.45 338.02-7.68 338.77-5.9 340.12-5.9L340.12-5.9Q341.47-5.9 342.37-7.2ZM398.37-7.5L398.37-7.5Q399.67-7.5 399.99-8.13 400.32-8.75 400.32-10.45L400.32-10.45 400.37-19.4Q400.37-21.7 401.67-22.78 402.97-23.85 406.07-23.85L406.07-23.85Q407.42-23.85 408.27-23.55 409.12-23.25 409.74-22.58 410.37-21.9 410.69-20.53 411.02-19.15 411.17-17.23 411.32-15.3 411.32-12.3L411.32-12.3Q411.32-9.65 410.49-7.48 409.67-5.3 408.39-3.95 407.12-2.6 405.42-1.68 403.72-0.75 402.02-0.38 400.32 0 398.62 0L398.62 0Q394.57 0 391.17-2.55L391.17-2.55Q387.82 0 383.77 0L383.77 0Q382.07 0 380.39-0.38 378.72-0.75 376.99-1.68 375.27-2.6 373.97-3.95 372.67-5.3 371.84-7.48 371.02-9.65 371.02-12.3L371.02-12.3Q371.02-17.25 371.47-19.63 371.92-22 372.97-22.93 374.02-23.85 376.27-23.85L376.27-23.85Q378.37-23.85 379.62-23.35 380.87-22.85 381.39-21.9 381.92-20.95 381.92-19.4L381.92-19.4 381.97-10.5Q381.97-9.75 381.99-9.43 382.02-9.1 382.12-8.63 382.22-8.15 382.42-7.98 382.62-7.8 382.97-7.65 383.32-7.5 383.87-7.5L383.87-7.5Q385.87-7.5 386.22-8.65L386.22-8.65Q385.77-11.65 385.77-15.1L385.77-15.1Q385.77-18 385.97-19.63 386.17-21.25 386.84-22.25 387.52-23.25 388.52-23.55 389.52-23.85 391.37-23.85L391.37-23.85Q393.02-23.85 393.97-23.55 394.92-23.25 395.52-22.25 396.12-21.25 396.32-19.63 396.52-18 396.52-15.1L396.52-15.1Q396.52-11.6 396.12-8.6L396.12-8.6Q396.47-7.5 398.37-7.5ZM415.51-30.8L415.51-30.8Q415.51-32.45 416.94-33.52 418.36-34.6 420.96-34.6L420.96-34.6Q426.41-34.6 426.41-30.8L426.41-30.8Q426.41-28.7 425.04-27.85 423.66-27 420.96-27L420.96-27Q418.61-27 417.06-27.9 415.51-28.8 415.51-30.8ZM426.36-18.35L426.36-5.35Q426.36-2.35 425.11-1.18 423.86 0 420.71 0L420.71 0Q417.76 0 416.69-1.38 415.61-2.75 415.61-5.9L415.61-5.9 415.61-18.2Q415.61-20.75 416.99-22.3 418.36-23.85 420.66-23.85L420.66-23.85Q423.36-23.85 424.86-22.68 426.36-21.5 426.36-18.35L426.36-18.35ZM433.41-10.7L433.41-10.7 433.41-16.6Q432.16-16.65 431.41-17.03 430.66-17.4 430.34-18 430.01-18.6 430.01-19.5L430.01-19.5Q430.01-22.35 433.46-22.6L433.46-22.6 433.46-27.25Q433.46-29.15 436.21-30.68 438.96-32.2 441.66-32.2L441.66-32.2Q443.31-32.2 443.81-31.25 444.31-30.3 444.31-28.4L444.31-28.4 444.36-22.65 445.71-22.65Q448.46-22.65 449.49-21.93 450.51-21.2 450.51-19.3L450.51-19.3Q450.51-18.5 450.21-17.95 449.91-17.4 449.24-17.1 448.56-16.8 447.61-16.68 446.66-16.55 445.26-16.55L445.26-16.55 444.36-16.55 444.36-11.05Q444.36-10.25 444.44-9.73 444.51-9.2 444.66-8.9 444.81-8.6 445.09-8.5 445.36-8.4 445.76-8.4L445.76-8.4Q446.36-8.4 446.76-8.83 447.16-9.25 447.39-9.78 447.61-10.3 447.99-10.73 448.36-11.15 448.86-11.15L448.86-11.15Q450.01-11.15 450.64-10.6 451.26-10.05 451.26-9.25L451.26-9.25Q451.26-7.9 450.74-6.35 450.21-4.8 449.21-3.35 448.21-1.9 446.44-0.95 444.66 0 442.46 0L442.46 0Q437.51 0 435.46-2.5 433.41-5 433.41-10.7ZM471.66-4.15L471.61-13.4Q471.61-16.25 469.41-16.25L469.41-16.25Q469.01-16.25 468.68-16.15 468.36-16.05 468.08-15.9 467.81-15.75 467.58-15.48 467.36-15.2 467.18-14.88 467.01-14.55 466.93-14.1 466.86-13.65 466.86-13.1L466.86-13.1 466.86-7.6Q466.86-3.5 465.53-1.78 464.21-0.05 461.51-0.05L461.51-0.05Q458.71-0.05 457.41-1.63 456.11-3.2 456.11-7.2L456.11-7.2 456.01-28.5Q456.01-31.6 457.51-33.05 459.01-34.5 461.51-34.5L461.51-34.5Q464.16-34.5 465.51-33.4 466.86-32.3 466.86-28.95L466.86-28.95 466.86-21.7Q470.56-23.95 475.86-23.95L475.86-23.95Q478.26-23.95 479.71-22.73 481.16-21.5 481.86-18.85 482.56-16.2 482.56-11.9L482.56-11.9Q482.56-9.7 482.48-8.1 482.41-6.5 482.26-5.18 482.11-3.85 481.81-3 481.51-2.15 481.11-1.55 480.71-0.95 480.08-0.63 479.46-0.3 478.71-0.15 477.96 0 476.91 0L476.91 0Q474.11 0 472.88-1.03 471.66-2.05 471.66-4.15L471.66-4.15ZM503.31-11.85L503.31-11.85Q503.31-14.45 502.66-16.43 502.01-18.4 500.76-18.4L500.76-18.4Q499.91-18.4 499.26-17.4 498.61-16.4 498.31-14.95 498.01-13.5 498.01-11.85L498.01-11.85Q498.01-9.3 498.71-7.38 499.41-5.45 500.71-5.45 502.01-5.45 502.66-7.35 503.31-9.25 503.31-11.85ZM500.71 0.35L500.71 0.35Q496.81 0.35 493.68-1.05 490.56-2.45 488.68-5.25 486.81-8.05 486.81-11.8L486.81-11.8Q486.81-17.5 490.71-20.85 494.61-24.2 500.71-24.2 506.81-24.2 510.66-20.85 514.51-17.5 514.51-11.8L514.51-11.8Q514.51-6.15 510.58-2.9 506.66 0.35 500.71 0.35ZM529.6-19.7L529.65-10.55Q529.65-7.7 531.85-7.7L531.85-7.7Q532.6-7.7 533.18-8.18 533.75-8.65 534.05-9.5 534.35-10.35 534.35-11.45L534.35-11.45 534.35-18.15Q534.35-19.85 534.95-21.13 535.55-22.4 536.7-23.1 537.85-23.8 539.4-23.8L539.4-23.8Q542.1-23.8 543.6-22.63 545.1-21.45 545.1-18.3L545.1-18.3 545.1-5.3Q545.1-2.25 543.85-1.1 542.6 0.05 539.45 0.05L539.45 0.05Q538.1 0.05 537.15-0.23 536.2-0.5 535.63-1.05 535.05-1.6 534.75-2.5L534.75-2.5Q532.7-1.15 530.43-0.6 528.15-0.05 525.35-0.05L525.35-0.05Q521.8-0.05 520.25-2.83 518.7-5.6 518.7-11.95L518.7-11.95Q518.7-15.1 518.85-17.07 519-19.05 519.33-20.48 519.65-21.9 520.33-22.6 521-23.3 521.93-23.6 522.85-23.9 524.35-23.9L524.35-23.9Q527.15-23.9 528.38-22.85 529.6-21.8 529.6-19.7L529.6-19.7ZM551.95-10.7L551.95-10.7 551.95-16.6Q550.7-16.65 549.95-17.03 549.2-17.4 548.88-18 548.55-18.6 548.55-19.5L548.55-19.5Q548.55-22.35 552-22.6L552-22.6 552-27.25Q552-29.15 554.75-30.68 557.5-32.2 560.2-32.2L560.2-32.2Q561.85-32.2 562.35-31.25 562.85-30.3 562.85-28.4L562.85-28.4 562.9-22.65 564.25-22.65Q567-22.65 568.02-21.93 569.05-21.2 569.05-19.3L569.05-19.3Q569.05-18.5 568.75-17.95 568.45-17.4 567.77-17.1 567.1-16.8 566.15-16.68 565.2-16.55 563.8-16.55L563.8-16.55 562.9-16.55 562.9-11.05Q562.9-10.25 562.98-9.73 563.05-9.2 563.2-8.9 563.35-8.6 563.63-8.5 563.9-8.4 564.3-8.4L564.3-8.4Q564.9-8.4 565.3-8.83 565.7-9.25 565.92-9.78 566.15-10.3 566.52-10.73 566.9-11.15 567.4-11.15L567.4-11.15Q568.55-11.15 569.17-10.6 569.8-10.05 569.8-9.25L569.8-9.25Q569.8-7.9 569.27-6.35 568.75-4.8 567.75-3.35 566.75-1.9 564.98-0.95 563.2 0 561 0L561 0Q556.05 0 554-2.5 551.95-5 551.95-10.7ZM590.49-10.7L590.49-10.7 590.49-16.6Q589.24-16.65 588.49-17.03 587.74-17.4 587.42-18 587.09-18.6 587.09-19.5L587.09-19.5Q587.09-22.35 590.54-22.6L590.54-22.6 590.54-27.25Q590.54-29.15 593.29-30.68 596.04-32.2 598.74-32.2L598.74-32.2Q600.39-32.2 600.89-31.25 601.39-30.3 601.39-28.4L601.39-28.4 601.44-22.65 602.79-22.65Q605.54-22.65 606.57-21.93 607.59-21.2 607.59-19.3L607.59-19.3Q607.59-18.5 607.29-17.95 606.99-17.4 606.32-17.1 605.64-16.8 604.69-16.68 603.74-16.55 602.34-16.55L602.34-16.55 601.44-16.55 601.44-11.05Q601.44-10.25 601.52-9.73 601.59-9.2 601.74-8.9 601.89-8.6 602.17-8.5 602.44-8.4 602.84-8.4L602.84-8.4Q603.44-8.4 603.84-8.83 604.24-9.25 604.47-9.78 604.69-10.3 605.07-10.73 605.44-11.15 605.94-11.15L605.94-11.15Q607.09-11.15 607.72-10.6 608.34-10.05 608.34-9.25L608.34-9.25Q608.34-7.9 607.82-6.35 607.29-4.8 606.29-3.35 605.29-1.9 603.52-0.95 601.74 0 599.54 0L599.54 0Q594.59 0 592.54-2.5 590.49-5 590.49-10.7ZM628.74-4.15L628.69-13.4Q628.69-16.25 626.49-16.25L626.49-16.25Q626.09-16.25 625.77-16.15 625.44-16.05 625.17-15.9 624.89-15.75 624.67-15.48 624.44-15.2 624.27-14.88 624.09-14.55 624.02-14.1 623.94-13.65 623.94-13.1L623.94-13.1 623.94-7.6Q623.94-3.5 622.62-1.78 621.29-0.05 618.59-0.05L618.59-0.05Q615.79-0.05 614.49-1.63 613.19-3.2 613.19-7.2L613.19-7.2 613.09-28.5Q613.09-31.6 614.59-33.05 616.09-34.5 618.59-34.5L618.59-34.5Q621.24-34.5 622.59-33.4 623.94-32.3 623.94-28.95L623.94-28.95 623.94-21.7Q627.64-23.95 632.94-23.95L632.94-23.95Q635.34-23.95 636.79-22.73 638.24-21.5 638.94-18.85 639.64-16.2 639.64-11.9L639.64-11.9Q639.64-9.7 639.57-8.1 639.49-6.5 639.34-5.18 639.19-3.85 638.89-3 638.59-2.15 638.19-1.55 637.79-0.95 637.17-0.63 636.54-0.3 635.79-0.15 635.04 0 633.99 0L633.99 0Q631.19 0 629.97-1.03 628.74-2.05 628.74-4.15L628.74-4.15ZM657.99 0.3L657.99 0.3Q651.89 0.3 647.91-2.85 643.94-6 643.94-11.45L643.94-11.45Q643.94-17.35 647.86-20.78 651.79-24.2 657.99-24.2L657.99-24.2Q663.84-24.2 666.56-22.13 669.29-20.05 669.29-16.45L669.29-16.45Q669.29-15.75 669.11-15.1 668.94-14.45 668.56-13.83 668.19-13.2 667.56-12.68 666.94-12.15 666.14-11.73 665.34-11.3 664.24-11.08 663.14-10.85 661.89-10.85L661.89-10.85 654.84-10.8Q655.34-9.2 656.64-8.28 657.94-7.35 659.94-7.35L659.94-7.35Q662.09-7.35 664.34-7.9L664.34-7.9Q665.29-8.15 666.41-8.7 667.54-9.25 668.04-9.25L668.04-9.25Q668.89-9.25 669.36-8.75 669.84-8.25 669.84-7.5L669.84-7.5Q669.84-6.6 669.04-5.33 668.24-4.05 666.81-2.78 665.39-1.5 663.04-0.6 660.69 0.3 657.99 0.3ZM654.59-14L654.59-14Q658.04-14.05 658.34-14.05L658.34-14.05Q659.09-14.05 659.44-14.95L659.44-14.95Q659.69-15.6 659.69-16.75L659.69-16.75Q659.69-19.9 657.79-19.9L657.79-19.9Q657.09-19.9 656.41-19.15 655.74-18.4 655.24-17.03 654.74-15.65 654.59-14ZM698.23-15.4L698.23-5.35Q698.23-2.35 696.98-1.18 695.73 0 692.53 0L692.53 0Q689.58 0 688.53-1.38 687.48-2.75 687.48-5.9L687.48-5.9 687.48-18.2Q687.48-19.9 688.08-21.18 688.68-22.45 689.83-23.15 690.98-23.85 692.53-23.85L692.53-23.85Q696.33-23.85 697.53-21.65L697.53-21.65Q700.43-23.85 703.13-23.85L703.13-23.85Q708.38-23.85 708.38-18.85L708.38-18.85Q708.38-16.85 707.23-15.6 706.08-14.35 704.23-14.35L704.23-14.35Q703.13-14.35 702.46-14.8 701.78-15.25 701.21-15.7 700.63-16.15 699.88-16.15L699.88-16.15Q698.78-16.15 698.23-15.4L698.23-15.4ZM710.93-30.8L710.93-30.8Q710.93-32.45 712.36-33.52 713.78-34.6 716.38-34.6L716.38-34.6Q721.83-34.6 721.83-30.8L721.83-30.8Q721.83-28.7 720.46-27.85 719.08-27 716.38-27L716.38-27Q714.03-27 712.48-27.9 710.93-28.8 710.93-30.8ZM721.78-18.35L721.78-5.35Q721.78-2.35 720.53-1.18 719.28 0 716.13 0L716.13 0Q713.18 0 712.11-1.38 711.03-2.75 711.03-5.9L711.03-5.9 711.03-18.2Q711.03-20.75 712.41-22.3 713.78-23.85 716.08-23.85L716.08-23.85Q718.78-23.85 720.28-22.68 721.78-21.5 721.78-18.35L721.78-18.35ZM738.08-24.2L738.08-24.2Q742.73-24.2 745.83-22.3 748.93-20.4 748.93-18.15L748.93-18.15Q748.93-17.5 748.38-16.95 747.83-16.4 746.98-16.4L746.98-16.4Q746.23-16.4 745.33-16.93 744.43-17.45 743.63-18.05 742.83-18.65 741.53-19.15 740.23-19.65 738.78-19.65L738.78-19.65Q736.83-19.65 736.83-18.45L736.83-18.45Q736.83-17.6 737.83-17.1 738.83-16.6 740.75-16.05 742.68-15.5 743.68-15L743.68-15Q747.43-13.55 748.83-11.88 750.23-10.2 750.23-7.45L750.23-7.45Q750.23-6.1 749.48-4.78 748.73-3.45 747.23-2.27 745.73-1.1 743.15-0.38 740.58 0.35 737.28 0.35L737.28 0.35Q730.83 0.35 727.63-2.6L727.63-2.6Q726.08-4.05 726.08-5.6L726.08-5.6Q726.08-6.55 726.7-7.1 727.33-7.65 728.48-7.65L728.48-7.65Q729.63-7.65 731.98-6.53 734.33-5.4 736.33-5.4L736.33-5.4Q739.08-5.4 739.08-6.75L739.08-6.75Q739.08-7.45 737.63-7.88 736.18-8.3 733.83-8.9 731.48-9.5 730.08-10.4L730.08-10.4Q727.88-11.35 727-12.78 726.13-14.2 726.13-16.25L726.13-16.25Q726.13-19.75 729.45-21.98 732.78-24.2 738.08-24.2ZM767.23-7.1L767.23-7.1 765.43-7.1Q765.43-4.5 763.93-2.25 762.43 0 759.93 0L759.93 0Q757.13 0 755.8-1.58 754.48-3.15 754.48-7.15L754.48-7.15 754.48-27.7Q754.48-29.85 755.18-31.18 755.88-32.5 757-33.05 758.13-33.6 759.93-33.7L759.93-33.7Q763.03-33.7 764.08-31.63 765.13-29.55 765.13-24.45L765.13-24.45Q765.13-20.5 764.68-17.5L764.68-17.5Q765.03-16.4 766.93-16.4L766.93-16.4Q768.13-16.4 768.55-16.93 768.98-17.45 768.98-19.05L768.98-19.05Q768.98-21.4 770.2-22.45 771.43-23.5 774.38-23.5L774.38-23.5Q777.48-23.5 778.55-22.38 779.63-21.25 779.63-18.3L779.63-18.3Q779.63-15.2 777.78-13.5 775.93-11.8 773.63-11.8L773.63-11.8Q775.98-11.8 777.8-10.38 779.63-8.95 779.63-6.1L779.63-6.1Q779.63-2.3 778.6-1.15 777.58 0 774.38 0L774.38 0Q771.43 0 770.2-1.07 768.98-2.15 768.98-4.45L768.98-4.45Q768.98-5.6 768.78-6.18 768.58-6.75 768.25-6.93 767.93-7.1 767.23-7.1ZM784.42-3.45L784.42-3.45Q784.42-5.45 786-6.35 787.57-7.25 789.92-7.25L789.92-7.25Q795.87-7.25 795.87-3.45L795.87-3.45Q795.87-1.6 794.27-0.63 792.67 0.35 789.92 0.35L789.92 0.35Q787.32 0.35 785.87-0.73 784.42-1.8 784.42-3.45ZM795.92-30.1L795.92-30.1Q795.92-27.55 794.92-21.6 793.92-15.65 793.92-13.2L793.92-13.2Q793.92-11.15 792.97-10.2 792.02-9.25 789.87-9.25L789.87-9.25Q787.77-9.25 786.92-10.23 786.07-11.2 786.07-13.35L786.07-13.35Q786.07-15.75 785.07-21.45 784.07-27.15 784.07-29.55L784.07-29.55Q784.07-32.05 785.3-33.3 786.52-34.55 789.72-34.55L789.72-34.55Q793.07-34.55 794.5-33.5 795.92-32.45 795.92-30.1Z" opacity="1" transform="matrix(1,0,0,1,0,0)" fill="#000000" class="undefined-text-1" data-fill-palette-color="secondary" id="text-1"></path></svg></g></svg></g></svg></g></svg></g><g transform="matrix(1,0,0,1,119.35438995723399,0)"><svg viewBox="0 0 156.811220085532 107.50104315998388" height="107.50104315998388" width="156.811220085532"><g><svg xmlns="http://www.w3.org/2000/svg" xmlns:xlink="http://www.w3.org/1999/xlink" version="1.1" x="8" y="0" viewBox="0 7.700000286102295 65.0999984741211 49.70000076293945" enable-background="new 0 0 65 65" xml:space="preserve" width="140.811220085532" height="107.50104315998388" class="icon-icon-0" data-fill-palette-color="accent" id="icon-0"><g fill="#ed2647" data-fill-palette-color="accent"><path d="M10.9 40.1v1.2c-0.4 0.1-0.9 0.3-1.2 0.6-0.6 0.5-0.9 1.1-0.9 1.8 0 0.7 0.3 1.3 0.9 1.8 0.5 0.5 1.2 0.7 1.9 0.7 0.4 0 0.7 0.1 1 0.3 0.2 0.2 0.3 0.4 0.3 0.7 0 0.3-0.1 0.5-0.3 0.7-0.5 0.4-1.4 0.4-1.9 0-0.2-0.2-0.3-0.4-0.3-0.7H8.9c0 0.7 0.3 1.3 0.9 1.8 0.3 0.3 0.8 0.5 1.2 0.6V51h1.5v-1.2c0.4-0.1 0.9-0.3 1.2-0.6 0.6-0.5 0.9-1.1 0.9-1.8 0-0.7-0.3-1.3-0.9-1.8-0.5-0.5-1.2-0.7-1.9-0.7-0.4 0-0.7-0.1-1-0.3-0.2-0.2-0.3-0.4-0.3-0.7 0-0.3 0.1-0.5 0.3-0.7 0.5-0.4 1.4-0.4 1.9 0 0.2 0.2 0.3 0.4 0.3 0.7h1.5c0-0.7-0.3-1.3-0.9-1.8-0.3-0.3-0.8-0.5-1.2-0.6v-1.2H10.9z" fill="#000000" data-fill-palette-color="accent"></path><path d="M62 45l-7.7-29.8h3v-1.5H42.9V11c0-1.5-1.2-2.7-2.7-2.7-0.6 0-1.2 0.2-1.6 0.6-0.5-0.7-1.3-1.2-2.3-1.2-0.8 0-1.5 0.3-1.9 0.8-0.5-0.5-1.2-0.8-1.9-0.8-0.8 0-1.5 0.3-2 0.9-0.5-0.5-1.2-0.9-2-0.9-1.4 0-2.6 1.2-2.6 2.6v1.3h-0.9c-1.4 0-2.5 0.9-2.9 2.2H7.4v1.5h3.3L3 45H0v0.7c0 6.4 5.2 11.7 11.7 11.7 6.4 0 11.7-5.2 11.7-11.7V45h-3l-7.7-29.8h9.3v6.9c0 0.8 0.4 1.6 1.1 2l2.8 2 0 5.8h1.5l0-6.6-3.5-2.4c-0.3-0.2-0.4-0.5-0.4-0.8v-7.7c0-0.8 0.7-1.5 1.5-1.5H27h0.3 4.2c-0.3 1-1.1 1.9-2.6 1.9h-4v1.5h0.8V19h1.5v-2.7H29c0.3 0 0.6 0 0.8-0.1 0.3 1.2 1.3 2.1 2.6 2.1 0.8 0 1.5-0.3 1.9-0.8 0.5 0.5 1.2 0.8 1.9 0.8 0.8 0 1.5-0.3 1.9-0.8 0.5 0.5 1.2 0.8 1.9 0.8 0.4 0 0.8-0.1 1.2-0.3v4.4c0 0.3-0.1 0.6-0.2 0.9l-0.7 1.4c-0.3 0.6-0.4 1.2-0.4 1.8v4.1h1.5v-4.1c0-0.4 0.1-0.8 0.3-1.2l0.7-1.4c0.2-0.5 0.3-1 0.3-1.5v-6.7-0.4h9.5L44.7 45h-3v0.7c0 6.4 5.2 11.7 11.7 11.7 6.4 0 11.7-5.2 11.7-11.7V45H62zM11.7 37.3c-2.2 0-4.2 0.9-5.7 2.3l5.7-22.2 5.7 22.2C15.9 38.2 13.9 37.3 11.7 37.3zM18.5 45.5c0 3.7-3 6.8-6.8 6.8-3.7 0-6.8-3-6.8-6.8 0-3.7 3-6.8 6.8-6.8C15.4 38.8 18.5 41.8 18.5 45.5zM11.7 55.9c-5.4 0-9.8-4.2-10.2-9.4h1.9c0.5 4.1 4 7.3 8.2 7.3 4.2 0 7.8-3.2 8.2-7.3h1.9C21.5 51.7 17 55.9 11.7 55.9zM53.3 37.3c-2.2 0-4.2 0.9-5.7 2.3l5.7-22.2L59 39.6C57.6 38.2 55.5 37.3 53.3 37.3zM60.1 45.5c0 3.7-3 6.8-6.8 6.8-3.7 0-6.8-3-6.8-6.8 0-3.7 3-6.8 6.8-6.8C57.1 38.8 60.1 41.8 60.1 45.5zM27.3 11.4v-1.3c0-0.6 0.5-1.1 1.1-1.1 0.7 0 1.3 0.6 1.3 1.3v1.1H27.3L27.3 11.4zM32.4 16.8c-0.6 0-1.1-0.5-1.2-1.1 1.2-0.8 1.9-2.1 1.9-3.5v-0.7h-1.9v-1.1-0.1c0-0.7 0.5-1.2 1.2-1.2 0.7 0 1.2 0.5 1.2 1.2v5.3C33.6 16.2 33 16.8 32.4 16.8zM36.3 16.8c-0.7 0-1.2-0.5-1.2-1.2v-5.3c0-0.7 0.5-1.2 1.2-1.2s1.2 0.5 1.2 1.2V11v4.6C37.5 16.2 36.9 16.8 36.3 16.8zM40.2 16.8c-0.7 0-1.2-0.5-1.2-1.2V11c0-0.7 0.5-1.2 1.2-1.2s1.2 0.5 1.2 1.2v2.9 1.8C41.4 16.2 40.8 16.8 40.2 16.8zM53.3 55.9c-5.4 0-9.8-4.2-10.2-9.4h1.9c0.5 4.1 4 7.3 8.2 7.3 4.2 0 7.8-3.2 8.2-7.3h1.9C63.1 51.7 58.7 55.9 53.3 55.9z" fill="#000000" data-fill-palette-color="accent"></path><path d="M52.6 40.1v1.2c-0.4 0.1-0.9 0.3-1.2 0.6-0.6 0.5-0.9 1.1-0.9 1.8 0 0.7 0.3 1.3 0.9 1.8 0.5 0.5 1.2 0.7 1.9 0.7 0.4 0 0.7 0.1 1 0.3 0.2 0.2 0.3 0.4 0.3 0.7 0 0.3-0.1 0.5-0.3 0.7-0.5 0.4-1.4 0.4-1.9 0-0.2-0.2-0.3-0.4-0.3-0.7h-1.5c0 0.7 0.3 1.3 0.9 1.8 0.3 0.3 0.8 0.5 1.2 0.6V51h1.5v-1.2c0.4-0.1 0.9-0.3 1.2-0.6 0.6-0.5 0.9-1.1 0.9-1.8 0-0.7-0.3-1.3-0.9-1.8-0.5-0.5-1.2-0.7-1.9-0.7-0.4 0-0.7-0.1-1-0.3C52.1 44.3 52 44 52 43.8c0-0.3 0.1-0.5 0.3-0.7 0.5-0.4 1.4-0.4 1.9 0 0.2 0.2 0.3 0.4 0.3 0.7h1.5c0-0.7-0.3-1.3-0.9-1.8-0.3-0.3-0.8-0.5-1.2-0.6v-1.2H52.6z" fill="#000000" data-fill-palette-color="accent"></path></g></svg></g></svg></g><g><rect width="119.35438995723399" height="4.661985253118371" y="101.83905790686552" x="276.165610042766" fill="#000000" data-fill-palette-color="accent"></rect><rect width="119.35438995723399" height="4.661985253118371" y="101.83905790686552" x="0" fill="#000000" data-fill-palette-color="accent"></rect><rect width="119.35438995723399" height="4.661985253118371" y="92.51508740062877" x="276.165610042766" fill="#000000" data-fill-palette-color="accent"></rect><rect width="119.35438995723399" height="4.661985253118371" y="92.51508740062877" x="0" fill="#000000" data-fill-palette-color="accent"></rect></g></svg></g></svg><rect width="395.52" height="197.49176551191982" fill="none" stroke="none" visibility="hidden"></rect></g></svg></g></svg>